<?xml version="1.0" encoding="iso-8859-1"?>
<!-- Generator: Adobe Illustrator 19.0.0, SVG Export Plug-In . SVG Version: 6.00 Build 0)  -->
<svg version="1.1" id="Capa_1" xmlns="http://www.w3.org/2000/svg" xmlns:xlink="http://www.w3.org/1999/xlink" x="0px" y="0px"
	 viewBox="0 0 512 512" style="enable-background:new 0 0 512 512;" xml:space="preserve">
<g>
	<g>
		<path d="M256,0C114.848,0,0,114.848,0,256s114.848,256,256,256s256-114.848,256-256S397.152,0,256,0z M256,480
			C132.48,480,32,379.52,32,256S132.48,32,256,32s224,100.48,224,224S379.52,480,256,480z"/>
	</g>
</g>
<g>
	<g>
		<path d="M176,144c-26.464,0-48,21.536-48,48h32c0-8.816,7.184-16,16-16s16,7.184,16,16h32C224,165.536,202.464,144,176,144z"/>
	</g>
</g>
<g>
	<g>
		<path d="M336,144c-26.464,0-48,21.536-48,48h32c0-8.816,7.184-16,16-16c8.816,0,16,7.184,16,16h32
			C384,165.536,362.464,144,336,144z"/>
	</g>
</g>
<g>
	<g>
		<path d="M368,272c0,61.76-50.24,112-112,112s-112-50.24-112-112h-32c0,79.392,64.608,144,144,144s144-64.608,144-144H368z"/>
	</g>
</g>
<g>
</g>
<g>
</g>
<g>
</g>
<g>
</g>
<g>
</g>
<g>
</g>
<g>
</g>
<g>
</g>
<g>
</g>
<g>
</g>
<g>
</g>
<g>
</g>
<g>
</g>
<g>
</g>
<g>
</g>
</svg>
